<?xml version="1.0" encoding="UTF-8" standalone="no"?>
<!-- Created with Inkscape (http://www.inkscape.org/) -->

<svg
   xmlns:dc="http://purl.org/dc/elements/1.1/"
   xmlns:cc="http://creativecommons.org/ns#"
   xmlns:rdf="http://www.w3.org/1999/02/22-rdf-syntax-ns#"
   xmlns:svg="http://www.w3.org/2000/svg"
   xmlns="http://www.w3.org/2000/svg"
   xmlns:sodipodi="http://sodipodi.sourceforge.net/DTD/sodipodi-0.dtd"
   xmlns:inkscape="http://www.inkscape.org/namespaces/inkscape"
   width="744.09448819"
   height="1052.3622047"
   id="svg2"
   version="1.1"
   inkscape:version="0.48.4 r9939"
   sodipodi:docname="New document 1">
  <defs
     id="defs4" />
  <sodipodi:namedview
     id="base"
     pagecolor="#ffffff"
     bordercolor="#666666"
     borderopacity="1.0"
     inkscape:pageopacity="0.0"
     inkscape:pageshadow="2"
     inkscape:zoom="1.5215789"
     inkscape:cx="365.71429"
     inkscape:cy="770.86821"
     inkscape:document-units="px"
     inkscape:current-layer="layer1"
     showgrid="false"
     inkscape:window-width="1920"
     inkscape:window-height="1009"
     inkscape:window-x="0"
     inkscape:window-y="49"
     inkscape:window-maximized="1" />
  <metadata
     id="metadata7">
    <rdf:RDF>
      <cc:Work
         rdf:about="">
        <dc:format>image/svg+xml</dc:format>
        <dc:type
           rdf:resource="http://purl.org/dc/dcmitype/StillImage" />
        <dc:title></dc:title>
      </cc:Work>
    </rdf:RDF>
  </metadata>
  <g
     inkscape:label="Layer 1"
     inkscape:groupmode="layer"
     id="layer1">
    <path
       style="fill:#000000"
       d="m 419.42858,255.21933 0,-105.5 126,0 126,0 0,105.5 0,105.5 -126,0 -126,0 z m 49.97989,103.75 c -0.0111,-0.4125 -0.4378,-3.63979 -0.94832,-7.17176 -1.13784,-7.872 0.58029,-16.38224 4.50465,-22.31234 2.24526,-3.39281 2.49193,-4.40871 1.56463,-6.44391 -1.7746,-3.89481 -1.18249,-4.13281 0.83829,-0.33695 l 1.85531,3.48504 -2.81383,3.20478 c -4.40957,5.02221 -6.45292,18.24837 -4.14431,26.82514 l 0.80751,3 99.67809,0.25483 99.67809,0.25483 0,-13.97003 0,-13.97004 -3.13715,-3.57302 c -4.40188,-5.01346 -10.28455,-8.0919 -17.86285,-9.34773 -19.94982,-3.30597 -26.80693,-4.11724 -39.48355,-4.67136 -7.69095,-0.33618 -14.10992,-0.73762 -14.26439,-0.89208 -0.15446,-0.15447 0.83395,-2.71588 2.19648,-5.69202 3.82771,-8.36082 4.12219,-14.76745 1.16245,-25.28975 -2.73132,-9.71025 -5.69131,-13.79419 -13.11099,-18.08947 -6.01226,-3.48052 -13.42835,-4.61026 -29.99904,-4.56995 -13.38449,0.0326 -15.88997,0.32017 -23.27576,2.67195 -6.90676,2.19925 -8.89363,3.33632 -12.00377,6.86962 -6.63398,7.5366 -8.67257,12.83658 -8.65991,22.51422 0.009,7.22235 0.47871,9.62734 3.12188,16 l 3.11076,7.5 -10.47796,1.70255 c -5.76288,0.93641 -12.97871,2.42955 -16.03519,3.31809 l -5.55723,1.61553 -3.91112,-3.81808 c -2.15111,-2.09995 -5.80005,-6.18483 -8.10874,-9.07752 -2.3087,-2.89269 -4.3232,-4.88273 -4.47667,-4.42231 -0.15348,0.46042 0.61442,3.70785 1.70644,7.21651 1.09202,3.50866 1.80608,6.55879 1.58681,6.77807 -0.7375,0.73749 -4.69722,-13.71789 -4.04624,-14.7712 0.35408,-0.5729 0.16722,-1.04164 -0.41524,-1.04164 -0.58246,0 -1.05902,-0.97921 -1.05902,-2.17602 0,-1.74814 0.63907,-1.28171 3.25,2.37199 1.7875,2.50141 6.00539,7.48603 9.37308,11.07693 l 6.12308,6.52892 6.37692,-1.7641 c 3.50731,-0.97025 10.33366,-2.35098 15.16968,-3.06828 7.3427,-1.08911 8.68591,-1.56519 8.14487,-2.88682 -4.49533,-10.98078 -5.57624,-15.86934 -5.12195,-23.16452 0.49867,-8.00764 2.07115,-12.08407 7.57314,-19.63222 3.44688,-4.72877 5.75805,-6.13793 15.11118,-9.21355 12.4927,-4.10802 42.97036,-3.24174 52.10304,1.48095 1.61541,0.83537 4.90947,3.41512 7.32011,5.73278 3.49907,3.3641 4.85632,5.72649 6.72993,11.71394 3.10624,9.92653 3.1137,20.49575 0.0193,27.40454 -1.20817,2.69749 -2.07872,4.99837 -1.93455,5.11307 0.14417,0.11469 6.02391,0.46869 13.06608,0.78666 9.46387,0.42731 12.89922,0.26738 13.16917,-0.61307 0.20087,-0.65516 1.34501,-4.1162 2.54252,-7.6912 2.84894,-8.50508 3.82623,-19.59132 3.08537,-35 l -0.60097,-12.5 -1.83597,7 c -2.10094,8.01022 -4.9385,16.07249 -7.85367,22.31437 -2.32923,4.98727 -3.70117,5.00236 -1.53163,0.0168 4.04807,-9.30233 6.62773,-16.99428 9.753,-29.08121 0.67551,-2.6125 1.55946,-4.75 1.96434,-4.75 1.63508,0 9.7718,20.71745 12.01019,30.57993 0.50929,2.24395 1.23246,4.94395 1.60704,6 0.46924,1.3229 0.35497,1.60905 -0.36741,0.92007 -0.57666,-0.55 -2.21144,-5.275 -3.63285,-10.5 -2.41923,-8.89295 -6.59491,-20.3152 -7.90601,-21.6263 -0.78129,-0.7813 -0.0653,42.50228 0.83283,50.34893 0.77965,6.8112 0.61729,6.67049 8.96014,7.76552 2.75,0.36095 8.12318,1.35433 11.9404,2.20752 5.98162,1.33695 7.67389,2.24495 12.25,6.57285 l 5.3096,5.02163 0,-89.64505 0,-89.64506 -12.01419,0 -12.01419,0 2.76419,4.17697 c 2.53579,3.83183 2.76411,4.96798 2.76319,13.75 -0.002,14.83146 -3.79696,22.80827 -12.999,27.32002 -3.63885,1.78413 -14.8267,5.04291 -23,6.69942 -3.3,0.66882 -7.8,1.62234 -10,2.11893 -5.33789,1.20487 -29.90948,3.10313 -37.19253,2.87327 -3.19411,-0.1008 -10.57134,-0.0896 -16.39384,0.0249 -5.82251,0.11448 -12.57251,-0.0413 -15,-0.34618 -2.4275,-0.30488 -8.46363,-1.06263 -13.41363,-1.6839 -10.69639,-1.34249 -24.83999,-5.10025 -30.70746,-8.15854 -5.69565,-2.96874 -11.16731,-8.62442 -12.40482,-12.82202 -0.83722,-2.8398 -1.45025,-3.40665 -3.45283,-3.19271 -3.83302,0.40949 -11.9841,4.14582 -17.28285,7.9222 -2.66637,1.90031 -5.02899,3.27406 -5.25026,3.05279 -0.77508,-0.77507 10.58188,-7.952 16.31229,-10.3084 7.53722,-3.09939 10.28473,-3.14657 10.28967,-0.17671 0.006,3.39794 3.42761,8.32235 8.21317,11.81924 5.23069,3.82215 6.92455,4.53111 18.084,7.56898 15.23349,4.14692 32.24699,5.58667 58.19909,4.92503 27.02129,-0.68889 31.6917,-1.07188 45,-3.69015 28.82221,-5.67047 35.68906,-9.63169 38.90746,-22.44419 2.95133,-11.7493 1.64123,-21.55483 -3.6295,-27.16526 l -2.12659,-2.26365 -77.22209,0 -77.2221,0 -3.04904,3.47267 c -2.88815,3.28942 -5.14029,8.88799 -5.15256,12.80871 -0.003,0.97977 -0.79308,2.02277 -1.75558,2.31779 -9.09304,2.78716 -19.57481,10.90696 -23.58062,18.26695 -1.53681,2.82364 -2.47137,5.13388 -2.0768,5.13388 0.39457,0 -0.0996,0.90276 -1.09813,2.00613 -0.99854,1.10337 -1.99105,1.8306 -2.20559,1.61607 -0.82036,-0.82037 6.05999,-12.29706 9.55159,-15.93243 4.70051,-4.89406 13.20069,-10.548 17.00046,-11.30795 2.61278,-0.52256 3.04276,-1.12039 3.63202,-5.04987 0.68915,-4.5956 4.03347,-11.33195 5.62585,-11.33195 0.49567,0 0.90122,-0.45607 0.90122,-1.01348 0,-0.6696 -11.28184,-0.92408 -33.25,-0.75 l -33.25,0.26348 -0.25463,104.25 -0.25463,104.25 24.50463,0 c 13.47755,0 24.49558,-0.3375 24.48452,-0.75 z m -31.44539,-19.02069 c -1.13956,-2.96964 -0.44554,-10.53238 1.4655,-15.96963 1.39158,-3.9593 2.00466,-8.2867 2.01531,-14.22502 0.008,-4.69406 0.45978,-9.20966 1.00301,-10.03466 1.5372,-2.33453 0.12433,19.34424 -1.57454,24.15933 -2.40912,6.82819 -1.64114,20.20509 0.92191,16.058 0.51436,-0.83227 6.68331,-0.72196 12.88431,0.23039 3.24635,0.49856 3.75,0.31446 3.75,-1.3708 0,-1.0707 -0.48299,-3.21352 -1.07331,-4.76182 -0.59032,-1.54831 -1.21053,-7.0901 -1.37825,-12.3151 -0.32311,-10.06629 -1.12346,-18.45014 -1.97255,-20.66282 -0.31239,-0.81408 -2.11014,-1.33718 -4.59553,-1.33718 -3.6747,0 -4.22036,-0.33015 -5.46363,-3.30572 -0.7764,-1.85818 -1.36817,-6.63336 -1.35142,-10.90494 0.0164,-4.17957 -0.27225,-8.5509 -0.64142,-9.71408 l -0.67124,-2.11486 -1.77056,2.18656 c -2.77948,3.43251 -5.26278,1.85595 -4.52327,-2.87166 0.3248,-2.07642 0.16368,-5.64812 -0.35803,-7.93712 -0.76362,-3.35035 -0.64293,-4.46747 0.619,-5.72939 1.42342,-1.42343 1.38476,-1.77636 -0.42037,-3.83818 -2.48283,-2.83588 -5.98597,-10.22758 -6.88009,-14.51715 -1.41681,-6.79713 2.42918,-12.40414 10.35087,-15.09039 4.34576,-1.47365 8.92657,0.53001 11.61442,5.08017 1.5407,2.6082 1.88146,5.08717 1.81536,13.20623 -0.0448,5.49741 0.29127,10.97543 0.74672,12.17337 0.73653,1.93722 0.42036,2.2546 -2.8593,2.87019 l -3.6874,0.69213 4,1.47574 c 6.55881,2.41978 11.77216,3.56284 15.75693,3.45481 2.58813,-0.0702 4.41417,0.55539 5.86954,2.01076 1.76826,1.76826 2.85676,2.01061 6.67811,1.48684 2.51102,-0.34418 5.61994,-1.31667 6.9087,-2.1611 1.28877,-0.84443 2.80981,-1.24695 3.38011,-0.89449 1.55137,0.9588 -1.87263,4.30666 -3.90021,3.81348 -0.93125,-0.22652 -3.7001,-0.0558 -6.15301,0.37929 -3.6145,0.64119 -4.56998,1.26105 -5.04099,3.27033 -0.72987,3.11351 -3.65004,3.62375 -9.27483,1.62058 -2.32339,-0.82744 -6.06583,-1.7079 -8.31652,-1.95659 l -4.09217,-0.45216 1.29828,3.63368 c 0.71405,1.99852 1.28315,4.30867 1.26466,5.13367 -0.0436,1.94425 -3.69905,-7.9378 -3.8011,-10.27568 -0.0718,-1.64563 0.13857,-1.66394 2.87284,-0.25 1.62269,0.83912 4.04111,1.52568 5.37427,1.52568 1.33317,0 4.33709,0.675 6.67539,1.5 5.54878,1.95772 6.28151,1.89453 5.03518,-0.43426 -0.56935,-1.06384 -1.03518,-2.86384 -1.03518,-4 0,-1.62101 -0.63536,-2.06574 -2.95121,-2.06574 -3.50245,0 -13.00982,-2.37359 -16.07229,-4.01258 -1.98441,-1.06202 -2.11163,-0.96348 -1.51935,1.17675 0.59313,2.1433 0.53002,2.19158 -0.76561,0.58583 -1.8887,-2.34077 -2.9745,-2.2169 -2.19154,0.25 0.36414,1.14731 0.1797,2 -0.43261,2 -0.58707,0 -1.06739,-0.675 -1.06739,-1.5 0,-0.825 -0.675,-1.5 -1.5,-1.5 -1.80963,0 -2.07188,6.36565 -0.43917,10.66001 0.58346,1.53461 1.1666,6.62647 1.29586,11.31524 0.18583,6.7409 0.63818,8.99589 2.16141,10.77489 2.40692,2.81109 4.62225,2.85725 7.07462,0.14741 1.53582,-1.69707 1.8359,-3.28781 1.55629,-8.25 -0.19053,-3.38115 -0.10172,-5.90977 0.19735,-5.61915 0.29907,0.29061 0.75283,3.95673 1.00835,8.14692 0.25553,4.19019 0.87356,8.45241 1.37341,9.47161 1.19426,2.43508 1.68371,9.72602 0.60818,9.05953 -1.13484,-0.70325 0.21819,22.92617 1.55904,27.22731 0.58875,1.88857 0.81566,3.68857 0.50424,4 -0.31141,0.31143 -5.23819,0.59373 -10.94839,0.62733 -7.99374,0.047 -10.50515,-0.25933 -10.91669,-1.33179 z m 16.4655,-42.22931 c 0,-0.55 -0.19844,-1 -0.44098,-1 -0.24254,0 -0.7191,0.45 -1.05902,1 -0.33992,0.55 -0.14148,1 0.44098,1 0.58246,0 1.05902,-0.45 1.05902,-1 z m -15,-25.12244 c 0,-1.03266 -0.45,-1.87756 -1,-1.87756 -0.55,0 -0.99311,-2.1375 -0.98469,-4.75 0.01,-3.05062 0.32375,-4.26319 0.87743,-3.3893 0.47417,0.74838 0.65308,2.1601 0.39757,3.13714 -0.2555,0.97704 0.0247,2.07879 0.62257,2.44832 1.45436,0.89884 1.40321,-2.6583 -0.0852,-5.925 -1.50963,-3.31328 -3.38313,-2.67042 -3.13716,1.07646 0.10479,1.59631 0.24943,5.2933 0.32142,8.21554 0.11047,4.48345 0.354,5.12802 1.55948,4.12756 0.78572,-0.65209 1.42858,-2.03051 1.42858,-3.06316 z m 33,-0.87756 c 0,-0.55 -0.47656,-1 -1.05902,-1 -0.58246,0 -0.7809,0.45 -0.44098,1 0.33992,0.55 0.81648,1 1.05902,1 0.24254,0 0.44098,-0.45 0.44098,-1 z m -26.34934,-14.46794 c -0.30982,-0.80739 -0.18012,-1.70481 0.28823,-1.99426 0.46835,-0.28946 1.10957,0.14613 1.42494,0.96797 0.31537,0.82184 1.15002,1.45873 1.85479,1.41531 1.00364,-0.0618 1.01044,-0.18827 0.0314,-0.58333 -1.48423,-0.59889 -1.68937,-3.33772 -0.25002,-3.33772 1.10757,0 1.34882,-12.25656 0.3591,-18.24413 -0.34038,-2.05927 -1.66394,-4.87177 -2.94124,-6.25 -2.56979,-2.77285 -5.71124,-3.43398 -4.77949,-1.00587 0.38929,1.01447 -0.05,1.5 -1.35707,1.5 -2.25385,0 -5.3559,3.13226 -7.70612,7.78116 -2.91156,5.75928 -0.54669,14.73629 5.0397,19.13054 3.14242,2.47183 8.91734,2.91762 8.03578,0.62033 z m -12.66597,-22.78203 c 0.008,-0.4125 -0.43469,-0.75 -0.98469,-0.75 -0.55,0 -0.99311,1.0125 -0.98469,2.25 0.0124,1.81944 0.20082,1.96296 0.98469,0.75 0.53316,-0.825 0.97627,-1.8375 0.98469,-2.25 z m 3.01531,-3.75651 c 0,-1.69423 -2.9015,-1.75981 -4.40403,-0.0995 -1.49017,1.64662 -1.40029,1.73094 1.40605,1.31906 1.64889,-0.242 2.99798,-0.79079 2.99798,-1.21952 z m 5.15789,105.00651 c 0,-1.375 0.22698,-1.9375 0.50439,-1.25 0.27741,0.6875 0.27741,1.8125 0,2.5 -0.27741,0.6875 -0.50439,0.125 -0.50439,-1.25 z m 0.0371,-6.5 c 0.0204,-1.65 0.2445,-2.20394 0.49804,-1.23097 0.25354,0.97297 0.23687,2.32297 -0.0371,3 -0.27393,0.67703 -0.48137,-0.11903 -0.46099,-1.76903 z m 51.66579,-30.46673 c -2.63986,-2.19923 -1.90669,-2.7034 1.15279,-0.79272 1.58243,0.98824 2.39319,0.98652 3.98643,-0.008 2.18964,-1.36745 2.71186,-0.34393 0.8,1.56793 -1.69437,1.69437 -3.22169,1.4972 -5.93922,-0.76673 z m 3.08169,-16.46395 c 0.65304,-0.78687 1.22662,-2.81187 1.27462,-4.5 0.0829,-2.91665 1.78291,-4.55526 1.78291,-1.71854 0,2.4701 -2.18037,7.64922 -3.22027,7.64922 -0.62366,0 -0.55998,-0.55986 0.16274,-1.43068 z m -6.16266,-17.40679 c -0.9461,-1.95552 -1.54456,-3.73112 -1.3299,-3.94577 0.72352,-0.72352 3.71884,4.67151 3.38288,6.09308 -0.18526,0.78394 -1.09534,-0.16795 -2.05298,-2.14731 z m -9.77981,-0.79748 c -3.03245,-1.08489 -3.16604,-1.25766 -1,-1.2933 1.375,-0.0226 3.16197,0.37752 3.97104,0.88919 2.4105,1.52445 0.78029,1.74618 -2.97104,0.40411 z m 12,-1.71006 c 0,-0.73976 -0.9,-2.1595 -2,-3.15499 -1.1,-0.99549 -1.98681,-2.30273 -1.97069,-2.90499 0.0359,-1.3413 5.97069,5.04086 5.97069,6.42077 0,0.54132 -0.45,0.98422 -1,0.98422 -0.55,0 -1,-0.60526 -1,-1.34501 z m -34,-0.65499 -3.5,-0.73672 3.19098,-0.13164 c 1.75504,-0.0724 3.4691,0.31836 3.80902,0.86836 0.33992,0.55 0.47898,0.94076 0.30902,0.86836 -0.16996,-0.0724 -1.88402,-0.46317 -3.80902,-0.86836 z m 13.47486,-0.0407 c -0.35375,-0.57237 -1.5053,-0.76705 -2.55902,-0.43261 -1.07098,0.33994 -1.91584,0.13738 -1.91584,-0.4593 0,-0.58707 1.35,-1.06739 3,-1.06739 2,0 3,0.5 3,1.5 0,1.74911 -0.61376,1.93396 -1.52514,0.45932 z m 12.24663,-1.09531 c -0.96902,-0.54228 -2.70912,-0.68532 -3.8669,-0.31786 -1.41355,0.44864 -1.88028,0.30443 -1.4208,-0.43902 0.82952,-1.34219 4.51575,-1.42462 6.53725,-0.14619 2.04668,1.29436 0.91331,2.11347 -1.24955,0.90307 z m -29.09565,-3.06762 c 0.62458,-1.01059 7.37525,-1.05308 7.37099,-0.0464 -0.002,0.4125 -1.77168,0.77088 -3.93318,0.79639 -2.1615,0.0255 -3.70852,-0.31199 -3.43781,-0.75 z m 11.37416,0.21328 c 0,-0.46791 1.39975,-1.15818 3.11055,-1.53393 2.22685,-0.4891 3.56617,-0.22757 4.71429,0.92054 0.95405,0.95406 1.13573,1.60374 0.44846,1.60374 -0.6354,0 -1.41289,-0.41685 -1.72777,-0.92633 -0.33807,-0.54702 -1.7954,-0.5756 -3.55901,-0.0698 -1.64259,0.47108 -2.98652,0.47369 -2.98652,0.006 z m 17.66848,-1.13537 c -1.00734,-0.5857 -2.69484,-0.83914 -3.75,-0.56321 -2.09403,0.5476 -2.69831,-0.87592 -0.66848,-1.57475 1.65433,-0.56956 6.75,1.21318 6.75,2.36151 0,1.10463 -0.0565,1.09922 -2.33152,-0.22355 z m -28.13187,-2.93351 c 0.31978,-0.51743 2.20487,-0.94077 4.18907,-0.94077 4.42612,0 4.0235,0.52409 -0.99809,1.29922 -2.24933,0.34721 -3.53766,0.20249 -3.19098,-0.35845 z m 12.087,-1.14077 c 0.27193,-0.44 1.56631,-0.8 2.87639,-0.8 1.31008,0 2.60446,0.36 2.87639,0.8 0.27194,0.44 -1.02244,0.8 -2.87639,0.8 -1.85395,0 -3.14833,-0.36 -2.87639,-0.8 z m 10.37956,-1.05 c -0.002,-0.4125 1.79683,-0.75 3.99683,-0.75 2.2,0 4,0.35943 4,0.79872 0,0.4393 -1.79857,0.7768 -3.99683,0.75 -2.19825,-0.0268 -3.99825,-0.38622 -4,-0.79872 z m 139.2579,-2.67584 c -5.59641,-4.05402 -8.06294,-10.45438 -6.29845,-16.34372 1.52653,-5.09512 7.16216,-10.73044 10.73103,-10.73044 2.10766,0 2.34336,0.25048 1.35562,1.44064 -0.6576,0.79235 -2.38891,1.57985 -3.84736,1.75 -3.10348,0.36206 -7.15909,6.62666 -7.18546,11.0992 -0.0446,7.56936 7.97269,15.49758 14.44406,14.28355 6.33817,-1.18905 12.40088,-11.251 11.29974,-18.75355 -0.22763,-1.55091 -0.0418,-2.81984 0.41294,-2.81984 1.26763,0 0.98161,-4.4452 -0.37319,-5.8 -0.66,-0.66 -2.3475,-1.23553 -3.75,-1.27895 -1.4025,-0.0434 -1.96819,-0.31236 -1.25709,-0.59764 2.30542,-0.92488 5.83953,0.57191 6.85342,2.90261 1.57662,3.62428 1.52266,9.22091 -0.11926,12.36936 -0.83311,1.59754 -1.51752,3.68422 -1.52091,4.63706 -0.003,0.95284 -1.95402,3.76534 -4.33474,6.25 -3.7275,3.89023 -4.88702,4.51756 -8.34996,4.51756 -2.85858,0 -5.18928,-0.84602 -8.06039,-2.92584 z m 22.42204,-16.26166 c -0.31922,-0.79773 -0.55618,-0.56078 -0.60416,0.60417 -0.0434,1.05416 0.19293,1.64479 0.52522,1.3125 0.33229,-0.3323 0.36781,-1.1948 0.0789,-1.91667 z m -183.04265,16.96023 c 0.60918,-0.98568 4.4919,-0.97585 6.05082,0.0153 0.65769,0.41816 -0.5376,0.75741 -2.66855,0.75741 -2.12291,0 -3.64493,-0.34772 -3.38227,-0.77273 z m 10.9391,-0.90145 c 0.66488,-1.0758 6.12514,-1.1581 6.77775,-0.10215 0.26144,0.42302 -1.27776,0.81509 -3.42044,0.87127 -2.14269,0.0562 -3.65348,-0.28992 -3.35731,-0.76912 z m 12.42338,-1.12128 c -0.004,-1.02182 5.75165,-0.95611 6.38762,0.0729 0.27973,0.45261 -1.04239,0.79011 -2.93804,0.75 -1.89565,-0.0401 -3.44796,-0.41042 -3.44958,-0.82292 z m -23.36248,-2.97727 c 0.60918,-0.98568 4.4919,-0.97585 6.05082,0.0153 0.65769,0.41815 -0.5376,0.75741 -2.66855,0.75741 -2.12291,0 -3.64493,-0.34773 -3.38227,-0.77273 z m 11.35954,0.23107 c 0,-0.58661 0.67601,-1.32598 1.50224,-1.64303 2.10232,-0.80674 6.70822,0.48967 5.97199,1.68093 -0.38149,0.61726 -1.22434,0.6379 -2.26508,0.0555 -1.02489,-0.57357 -2.33527,-0.56486 -3.43333,0.0228 -1.18515,0.63427 -1.77582,0.59563 -1.77582,-0.11618 z m 11.00317,-2.2538 c -0.004,-1.00669 6.74641,-0.9642 7.37099,0.0464 0.27071,0.43801 -1.27631,0.77551 -3.43781,0.75 -2.1615,-0.0255 -3.93143,-0.38389 -3.93318,-0.7964 z m -22.36271,-1.97727 c 0.26267,-0.425 1.77446,-0.77273 3.35954,-0.77273 1.58508,0 3.09687,0.34773 3.35954,0.77273 0.26266,0.425 -1.24913,0.77272 -3.35954,0.77272 -2.11041,0 -3.6222,-0.34772 -3.35954,-0.77272 z m 10.35954,0.0857 c 0,-1.27021 5.08391,-1.88387 7.02052,-0.84743 1.08871,0.58266 1.97948,1.15605 1.97948,1.2742 0,0.11815 -2.025,0.21482 -4.5,0.21482 -2.475,0 -4.5,-0.28872 -4.5,-0.64159 z m 12.65873,-3.10841 c 0.61309,-1.00111 6.09143,-0.96327 6.71543,0.0464 0.27071,0.43801 -1.23286,0.77551 -3.34127,0.75 -2.10841,-0.0255 -3.62678,-0.38389 -3.37416,-0.79639 z m -23.01827,-0.97727 c 0.60918,-0.98568 4.4919,-0.97585 6.05082,0.0153 0.65769,0.41815 -0.5376,0.75741 -2.66855,0.75741 -2.12291,0 -3.64493,-0.34773 -3.38227,-0.77273 z m 17.01969,0.057 c -1.00276,-0.56117 -2.68651,-0.79455 -3.74167,-0.51862 -1.05517,0.27593 -1.91848,0.0938 -1.91848,-0.40469 0,-1.18303 5.07696,-1.1433 6.97104,0.0546 2.08161,1.31645 0.89468,2.10304 -1.31089,0.86874 z m 18.12726,-0.0797 c 0.56776,-0.6875 1.48228,-2.825 2.03226,-4.75 0.70139,-2.45499 1.02688,-2.84226 1.09014,-1.29705 0.11138,2.72056 -1.89103,7.29705 -3.19277,7.29705 -0.57838,0 -0.55032,-0.49842 0.0704,-1.25 z m -32.28741,-3.75 c -2.2,-0.3939 -3.325,-0.83187 -2.5,-0.97325 2.4269,-0.4159 5.42829,0.0772 6.45,1.05971 0.5225,0.50245 0.7475,0.84968 0.5,0.77163 -0.2475,-0.078 -2.25,-0.46419 -4.45,-0.85809 z m 8.5,0.0911 c 0,-0.63461 0.67601,-1.41324 1.50224,-1.73029 1.94998,-0.74828 6.49776,0.39734 6.49776,1.63684 0,0.56786 -1.00835,0.50008 -2.47039,-0.16607 -1.88895,-0.86067 -2.83039,-0.8268 -4,0.14388 -1.08888,0.90369 -1.52961,0.93701 -1.52961,0.11564 z m 11,-0.34106 c 0,-0.4125 1.8,-0.75 4,-0.75 2.2,0 4,0.3375 4,0.75 0,0.4125 -1.8,0.75 -4,0.75 -2.2,0 -4,-0.3375 -4,-0.75 z m -19,-3.75 -3.5,-0.73672 3.75,-0.13164 c 2.0625,-0.0724 3.75,0.31836 3.75,0.86836 0,0.55 -0.1125,0.94076 -0.25,0.86836 -0.1375,-0.0724 -1.825,-0.46317 -3.75,-0.86836 z m 7.16439,0 c 0.5905,-1.80902 6.64637,-2.58924 8.18152,-1.05409 0.78879,0.78879 0.19941,0.91315 -2.12468,0.44834 -2.09703,-0.41941 -3.79571,-0.16494 -4.88137,0.73125 -1.42866,1.17933 -1.59558,1.16151 -1.17547,-0.1255 z m 16.83561,0.16667 c 0,-0.64167 -1.15156,-1.16667 -2.55902,-1.16667 -1.40746,0 -2.30701,-0.40775 -1.999,-0.90612 0.65461,-1.05918 4.32245,-0.28407 5.17374,1.09336 0.3215,0.5202 0.31449,1.21588 -0.0156,1.54596 -0.33006,0.33007 -0.60012,0.0751 -0.60012,-0.56653 z m 2.77981,-2.99512 c -0.9461,-1.96048 -1.54178,-3.74291 -1.32373,-3.96096 0.56805,-0.56806 3.72733,5.76549 3.35466,6.72523 -0.17091,0.44013 -1.08482,-0.80379 -2.03093,-2.76427 z m 145.97019,2.16617 c 0.6875,-0.27741 1.8125,-0.27741 2.5,0 0.6875,0.27741 0.125,0.50438 -1.25,0.50438 -1.375,0 -1.9375,-0.22697 -1.25,-0.50438 z m -3.9375,-1.02083 c 0.72187,-0.28887 1.58438,-0.25335 1.91667,0.079 0.33229,0.33229 -0.25834,0.56864 -1.3125,0.52522 -1.16495,-0.048 -1.4019,-0.28495 -0.60417,-0.60417 z m -172.80933,-2.56689 c -0.004,-1.00669 6.74641,-0.9642 7.37099,0.0464 0.27071,0.43801 -1.27631,0.77551 -3.43781,0.75 -2.1615,-0.0255 -3.93143,-0.38389 -3.93318,-0.7964 z m 24.99683,-1.42126 c 0,-0.91919 -0.74474,-2.49419 -1.65499,-3.5 -0.91024,-1.00581 -1.16076,-1.82874 -0.5567,-1.82874 1.32,0 4.21169,3.92899 4.21169,5.72251 0,0.70262 -0.45,1.27749 -1,1.27749 -0.55,0 -1,-0.75207 -1,-1.67126 z m -12.37416,-0.53235 c 0.62458,-1.01059 7.37525,-1.05308 7.37099,-0.0464 -0.002,0.4125 -1.77168,0.77087 -3.93318,0.79639 -2.1615,0.0255 -3.70852,-0.31199 -3.43781,-0.74999 z m 157.18666,0.5205 c 0.72187,-0.28888 1.58438,-0.25335 1.91667,0.079 0.33229,0.33229 -0.25834,0.56864 -1.3125,0.52522 -1.16495,-0.048 -1.4019,-0.28495 -0.60417,-0.60417 z m 2.6875,-1.38472 c -1.65,-1.0569 -2.48735,-1.92401 -1.86078,-1.92691 0.62656,-0.003 2.20156,0.87977 3.5,1.96147 2.97306,2.47681 2.25793,2.46173 -1.63922,-0.0346 z m -184.5,0.2135 c 0,-1.64518 4.56606,-6.15156 6.20455,-6.12343 0.7125,0.0122 0.1989,0.86506 -1.14132,1.89518 -1.34023,1.03012 -3.02773,2.68112 -3.75,3.66889 -0.74142,1.01396 -1.31323,1.25751 -1.31323,0.55936 z m 7.5,-2.14567 c 0.85325,-1.65 1.96887,-3 2.47917,-3 0.5103,0 0.16124,1.34715 -0.77568,2.99368 -2.22246,3.9057 -3.72282,3.91127 -1.70349,0.006 z m 4.5,1.29239 c 0,-1.1413 4.26471,-2.04283 6.59841,-1.39486 2.68595,0.74577 2.54858,0.83579 -1.84841,1.21126 -2.6125,0.22309 -4.75,0.30571 -4.75,0.1836 z m 12.2116,-2.44528 c 0.54814,-1.66683 7.7884,-2.44778 7.7884,-0.84009 0,0.66544 -0.8044,0.87245 -1.96223,0.50497 -1.07922,-0.34253 -2.93129,-0.10416 -4.1157,0.52972 -1.72713,0.92433 -2.06577,0.8858 -1.71047,-0.1946 z m 152.7884,0.15289 -3.5,-0.73672 3.19098,-0.13164 c 1.75504,-0.0724 3.4691,0.31836 3.80902,0.86836 0.33992,0.55 0.47898,0.94076 0.30902,0.86836 -0.16996,-0.0724 -1.88402,-0.46317 -3.80902,-0.86836 z m -161.80623,-4.73278 c 0.31739,-1.61194 5.47563,-5.96409 6.16341,-5.20025 0.21446,0.23816 -1.15348,1.85559 -3.03986,3.59427 -2.09622,1.93209 -3.31071,2.55652 -3.12355,1.60598 z m 9.34284,0.67355 c 0.31978,-0.51743 2.20487,-0.94077 4.18907,-0.94077 4.42612,0 4.0235,0.52409 -0.99809,1.29922 -2.24933,0.34721 -3.53766,0.20248 -3.19098,-0.35845 z m -21.53661,-0.7506 c 0,-1.31581 3.19285,-3.19017 5.43426,-3.19017 0.86116,0 1.56574,0.43588 1.56574,0.96861 0,0.53274 -0.69176,0.70317 -1.53725,0.37872 -0.84548,-0.32444 -2.42048,0.20943 -3.5,1.18638 -1.07951,0.97694 -1.96275,1.27235 -1.96275,0.65646 z m 32.75,0.2381 c -0.4125,-0.41888 -0.75,-1.4451 -0.75,-2.28049 0,-0.83538 -0.97844,-2.56038 -2.17431,-3.83333 -1.19588,-1.27295 -1.64588,-2.31445 -1,-2.31445 2.1097,0 1.23486,-1.90328 -1.57569,-3.42803 -1.65052,-0.89542 -2.12003,-1.5079 -1.17431,-1.53193 0.86662,-0.022 2.63256,1.08496 3.92431,2.45996 1.50611,1.60318 1.86484,2.5 1,2.5 -0.87949,0 -0.56361,0.83562 0.90806,2.40214 1.30226,1.38619 2.11612,3.32954 1.92432,4.59493 -0.18281,1.20604 -0.66988,1.85008 -1.08238,1.4312 z m -12.75,-2.2861 c 0,-0.51051 0.7118,-1.20134 1.58179,-1.53518 2.36094,-0.90598 7.41821,-0.73259 7.41821,0.25434 0,0.47373 -1.07457,0.65591 -2.38794,0.40484 -1.31337,-0.25106 -3.33837,0.0522 -4.5,0.67386 -1.16163,0.62168 -2.11206,0.71265 -2.11206,0.20214 z m -21,-3 c 0,-2.06042 6.39207,-2.93483 7.56621,-1.03504 0.45861,0.74204 -0.004,0.88866 -1.40321,0.4446 -1.1481,-0.36439 -3.00445,-0.17177 -4.12523,0.42805 -1.13678,0.60839 -2.03777,0.68019 -2.03777,0.16239 z m 17.44113,-3.56054 c 1.96281,-1.59929 7.55887,-2.21498 7.55887,-0.83163 0,0.4125 -1.2375,0.78219 -2.75,0.82152 -1.5125,0.0393 -3.65,0.41358 -4.75,0.83164 -1.97117,0.74915 -1.97202,0.73731 -0.0589,-0.82153 z m -1.44113,-3.30718 c 0,-0.98054 5.44619,-2.22826 6.24396,-1.43049 0.55771,0.55771 -0.48787,1.08245 -2.66284,1.33636 -1.96961,0.22994 -3.58112,0.2723 -3.58112,0.0941 z m -2,-2.21621 c 0,-1.32168 3.36966,-3.05824 5.93426,-3.05824 1.13616,0 2.06574,0.43588 2.06574,0.96861 0,0.53274 -0.67847,0.70826 -1.50772,0.39005 -0.82925,-0.31821 -2.62925,0.15629 -4,1.05444 -1.37075,0.89815 -2.49228,1.18846 -2.49228,0.64514 z m 170.27233,109.73126 c -0.12522,-2.47201 -0.6121,-5.53376 -1.08195,-6.8039 -0.77044,-2.0827 -1.01798,-1.80885 -2.52233,2.79043 -2.11053,6.45258 -2.09598,7.96701 0.082,8.52842 3.15108,0.81226 3.75309,0.0406 3.52233,-4.51495 z"
       id="path3085"
       inkscape:connector-curvature="0"
       sodipodi:nodetypes="ccccccccccsssscsscccccssscsssssscscsscsscscssssscsssssssssscsssscsssssssssssssscccccscssssssssssssscsssssscccscsssscsssssscccsccsscsssssssssssccssssssssssscscssssscssscsccsssssssssssssssssscsssscssssssssscsscssssssssssscsccsssssssscscscssssssssscsccccscsccscssssccsscssssssssscssssccsssccsssssccsccsssscsssssssscssccscsccssscsssssssssscssscsssccccccsscccssccsscccssccssscsssccsccscscsssssccscccsscccssccccsssccssscssssssssssssscssssssssssssscssscssssscccccccscssssssccsccccccccsccscssscssccsssssssssscssssscsscsscssssssssssscssssssssscssscsscscscccssccsssssscssscc" />
    <text
       xml:space="preserve"
       style="font-size:14.88787174px;font-style:normal;font-weight:normal;line-height:125%;letter-spacing:0px;word-spacing:0px;fill:#000000;fill-opacity:1;stroke:none;font-family:Sans"
       x="491.57376"
       y="166.29451"
       id="text3087"
       sodipodi:linespacing="125%"><tspan
         sodipodi:role="line"
         x="491.57376"
         y="166.29451"
         id="tspan3091">These are your </tspan><tspan
         sodipodi:role="line"
         x="491.57376"
         y="184.90434"
         id="tspan3095">father's parentheses</tspan></text>
    <text
       xml:space="preserve"
       style="font-size:14.59153271px;font-style:normal;font-weight:normal;line-height:125%;letter-spacing:0px;word-spacing:0px;fill:#000000;fill-opacity:1;stroke:none;font-family:Sans"
       x="523.38684"
       y="283.71033"
       id="text3097"
       sodipodi:linespacing="125%"><tspan
         sodipodi:role="line"
         id="tspan3099"
         x="523.38684"
         y="283.71033">Elegant</tspan><tspan
         sodipodi:role="line"
         x="523.38684"
         y="301.94974"
         id="tspan3101">Weapons</tspan></text>
    <text
       xml:space="preserve"
       style="font-size:14.58721924px;font-style:normal;font-weight:normal;line-height:125%;letter-spacing:0px;word-spacing:0px;fill:#000000;fill-opacity:1;stroke:none;font-family:Sans"
       x="474.57742"
       y="345.48499"
       id="text3103"
       sodipodi:linespacing="125%"><tspan
         sodipodi:role="line"
         id="tspan3105"
         x="474.57742"
         y="345.48499">For a more... civilized age.</tspan></text>
  </g>
</svg>
