<?xml version="1.0" encoding="UTF-8" standalone="no"?>
<!-- Created with Inkscape (http://www.inkscape.org/) -->

<svg
   xmlns:dc="http://purl.org/dc/elements/1.1/"
   xmlns:cc="http://creativecommons.org/ns#"
   xmlns:rdf="http://www.w3.org/1999/02/22-rdf-syntax-ns#"
   xmlns:svg="http://www.w3.org/2000/svg"
   xmlns="http://www.w3.org/2000/svg"
   xmlns:sodipodi="http://sodipodi.sourceforge.net/DTD/sodipodi-0.dtd"
   xmlns:inkscape="http://www.inkscape.org/namespaces/inkscape"
   width="800"
   height="200"
   id="svg2"
   version="1.1"
   inkscape:version="0.48.4 r9939"
   sodipodi:docname="New document 1">
  <defs
     id="defs4">
    <marker
       inkscape:stockid="Arrow1Lend"
       orient="auto"
       refY="0.0"
       refX="0.0"
       id="Arrow1Lend"
       style="overflow:visible;">
      <path
         id="path3798"
         d="M 0.0,0.0 L 5.0,-5.0 L -12.5,0.0 L 5.0,5.0 L 0.0,0.0 z "
         style="fill-rule:evenodd;stroke:#000000;stroke-width:1.0pt;"
         transform="scale(0.8) rotate(180) translate(12.5,0)" />
    </marker>
  </defs>
  <sodipodi:namedview
     id="base"
     pagecolor="#ffffff"
     bordercolor="#666666"
     borderopacity="1.0"
     inkscape:pageopacity="0.0"
     inkscape:pageshadow="2"
     inkscape:zoom="1.2998661"
     inkscape:cx="496.10955"
     inkscape:cy="20.513775"
     inkscape:document-units="px"
     inkscape:current-layer="layer1"
     showgrid="false"
     inkscape:window-width="1920"
     inkscape:window-height="1009"
     inkscape:window-x="0"
     inkscape:window-y="49"
     inkscape:window-maximized="1" />
  <metadata
     id="metadata7">
    <rdf:RDF>
      <cc:Work
         rdf:about="">
        <dc:format>image/svg+xml</dc:format>
        <dc:type
           rdf:resource="http://purl.org/dc/dcmitype/StillImage" />
        <dc:title></dc:title>
      </cc:Work>
    </rdf:RDF>
  </metadata>
  <g
     inkscape:label="Layer 1"
     inkscape:groupmode="layer"
     id="layer1"
     transform="translate(0,-852.36218)">
    <text
       xml:space="preserve"
       style="font-size:22px;font-style:normal;font-weight:normal;line-height:125%;letter-spacing:0px;word-spacing:0px;fill:#000000;fill-opacity:1;stroke:none;font-family:Sans"
       x="322.03873"
       y="54.756187"
       id="text4239"
       sodipodi:linespacing="125%"
       transform="translate(0,852.36218)"><tspan
         sodipodi:role="line"
         id="tspan4241"
         x="322.03873"
         y="54.756187" /></text>
    <g
       id="g4431"
       transform="matrix(1.1736973,0,0,1.1736973,26.075644,-154.92861)">
      <path
         sodipodi:nodetypes="cccccc"
         inkscape:connector-curvature="0"
         id="path2985"
         d="m 20.221388,913.19616 7.108402,0 0,61.39074 44.58907,0 0,-60.0983 7.754621,0"
         style="fill:none;stroke:#000000;stroke-width:1.18793571px;stroke-linecap:butt;stroke-linejoin:miter;stroke-opacity:1" />
      <path
         style="fill:none;stroke:#000000;stroke-width:1.18793571px;stroke-linecap:butt;stroke-linejoin:miter;stroke-opacity:1"
         d="m 97.767592,913.19617 7.108398,0 0,61.39073 44.58907,0 0,-60.09829 7.75462,0"
         id="path2987"
         inkscape:connector-curvature="0"
         sodipodi:nodetypes="cccccc" />
      <path
         sodipodi:nodetypes="cccccc"
         inkscape:connector-curvature="0"
         id="path2989"
         d="m 177.89867,913.19617 7.10841,0 0,61.39073 44.58907,0 0,-60.09829 7.75462,0"
         style="fill:none;stroke:#000000;stroke-width:1.18793571px;stroke-linecap:butt;stroke-linejoin:miter;stroke-opacity:1" />
      <path
         transform="matrix(1.1879357,0,0,1.1879357,-19.844153,841.04093)"
         d="m 62.558195,92.563095 c 0,1.952823 -1.583076,3.535898 -3.535898,3.535898 -1.952823,0 -3.535898,-1.583075 -3.535898,-3.535898 0,-1.952822 1.583075,-3.535898 3.535898,-3.535898 1.952822,0 3.535898,1.583076 3.535898,3.535898 z"
         sodipodi:ry="3.535898"
         sodipodi:rx="3.535898"
         sodipodi:cy="92.563095"
         sodipodi:cx="59.022297"
         id="path2991"
         style="fill:#ff0000;fill-opacity:1;stroke:#000000;stroke-width:1;stroke-miterlimit:4;stroke-opacity:1;stroke-dasharray:none;stroke-dashoffset:0"
         sodipodi:type="arc" />
      <path
         sodipodi:type="arc"
         style="fill:#ff0000;fill-opacity:1;stroke:#000000;stroke-width:1;stroke-miterlimit:4;stroke-opacity:1;stroke-dasharray:none;stroke-dashoffset:0"
         id="path2993"
         sodipodi:cx="59.022297"
         sodipodi:cy="92.563095"
         sodipodi:rx="3.535898"
         sodipodi:ry="3.535898"
         d="m 62.558195,92.563095 c 0,1.952823 -1.583076,3.535898 -3.535898,3.535898 -1.952823,0 -3.535898,-1.583075 -3.535898,-3.535898 0,-1.952822 1.583075,-3.535898 3.535898,-3.535898 1.952822,0 3.535898,1.583076 3.535898,3.535898 z"
         transform="matrix(1.1879357,0,0,1.1879357,42.839032,854.61152)" />
      <path
         transform="matrix(1.1879357,0,0,1.1879357,57.055837,842.97958)"
         d="m 62.558195,92.563095 c 0,1.952823 -1.583076,3.535898 -3.535898,3.535898 -1.952823,0 -3.535898,-1.583075 -3.535898,-3.535898 0,-1.952822 1.583075,-3.535898 3.535898,-3.535898 1.952822,0 3.535898,1.583076 3.535898,3.535898 z"
         sodipodi:ry="3.535898"
         sodipodi:rx="3.535898"
         sodipodi:cy="92.563095"
         sodipodi:cx="59.022297"
         id="path2995"
         style="fill:#ff0000;fill-opacity:1;stroke:#000000;stroke-width:1;stroke-miterlimit:4;stroke-opacity:1;stroke-dasharray:none;stroke-dashoffset:0"
         sodipodi:type="arc" />
      <path
         sodipodi:type="arc"
         style="fill:#ff0000;fill-opacity:1;stroke:#000000;stroke-width:1;stroke-miterlimit:4;stroke-opacity:1;stroke-dasharray:none;stroke-dashoffset:0"
         id="path2997"
         sodipodi:cx="59.022297"
         sodipodi:cy="92.563095"
         sodipodi:rx="3.535898"
         sodipodi:ry="3.535898"
         d="m 62.558195,92.563095 c 0,1.952823 -1.583076,3.535898 -3.535898,3.535898 -1.952823,0 -3.535898,-1.583075 -3.535898,-3.535898 0,-1.952822 1.583075,-3.535898 3.535898,-3.535898 1.952822,0 3.535898,1.583076 3.535898,3.535898 z"
         transform="matrix(1.1879357,0,0,1.1879357,126.84742,854.6115)" />
      <path
         sodipodi:type="arc"
         style="fill:#00ff00;fill-opacity:1;stroke:#000000;stroke-width:1;stroke-miterlimit:4;stroke-opacity:1;stroke-dasharray:none;stroke-dashoffset:0"
         id="path3001"
         sodipodi:cx="59.022297"
         sodipodi:cy="92.563095"
         sodipodi:rx="3.535898"
         sodipodi:ry="3.535898"
         d="m 62.558195,92.563095 c 0,1.952823 -1.583076,3.535898 -3.535898,3.535898 -1.952823,0 -3.535898,-1.583075 -3.535898,-3.535898 0,-1.952822 1.583075,-3.535898 3.535898,-3.535898 1.952822,0 3.535898,1.583076 3.535898,3.535898 z"
         transform="matrix(1.1879357,0,0,1.1879357,146.8802,853.96528)" />
      <path
         transform="matrix(1.1879357,0,0,1.1879357,60.286935,855.90394)"
         d="m 62.558195,92.563095 c 0,1.952823 -1.583076,3.535898 -3.535898,3.535898 -1.952823,0 -3.535898,-1.583075 -3.535898,-3.535898 0,-1.952822 1.583075,-3.535898 3.535898,-3.535898 1.952822,0 3.535898,1.583076 3.535898,3.535898 z"
         sodipodi:ry="3.535898"
         sodipodi:rx="3.535898"
         sodipodi:cy="92.563095"
         sodipodi:cx="59.022297"
         id="path3003"
         style="fill:#00ff00;fill-opacity:1;stroke:#000000;stroke-width:1;stroke-miterlimit:4;stroke-opacity:1;stroke-dasharray:none;stroke-dashoffset:0"
         sodipodi:type="arc" />
      <path
         sodipodi:type="arc"
         style="fill:#00ff00;fill-opacity:1;stroke:#000000;stroke-width:1;stroke-miterlimit:4;stroke-opacity:1;stroke-dasharray:none;stroke-dashoffset:0"
         id="path3005"
         sodipodi:cx="59.022297"
         sodipodi:cy="92.563095"
         sodipodi:rx="3.535898"
         sodipodi:ry="3.535898"
         d="m 62.558195,92.563095 c 0,1.952823 -1.583076,3.535898 -3.535898,3.535898 -1.952823,0 -3.535898,-1.583075 -3.535898,-3.535898 0,-1.952822 1.583075,-3.535898 3.535898,-3.535898 1.952822,0 3.535898,1.583076 3.535898,3.535898 z"
         transform="matrix(1.1879357,0,0,1.1879357,-30.183641,855.90394)" />
      <path
         transform="matrix(1.1879357,0,0,1.1879357,-8.8584334,855.25773)"
         d="m 62.558195,92.563095 c 0,1.952823 -1.583076,3.535898 -3.535898,3.535898 -1.952823,0 -3.535898,-1.583075 -3.535898,-3.535898 0,-1.952822 1.583075,-3.535898 3.535898,-3.535898 1.952822,0 3.535898,1.583076 3.535898,3.535898 z"
         sodipodi:ry="3.535898"
         sodipodi:rx="3.535898"
         sodipodi:cy="92.563095"
         sodipodi:cx="59.022297"
         id="path3007"
         style="fill:#0000ff;fill-opacity:1;stroke:#000000;stroke-width:1;stroke-miterlimit:4;stroke-opacity:1;stroke-dasharray:none;stroke-dashoffset:0"
         sodipodi:type="arc" />
      <path
         sodipodi:type="arc"
         style="fill:#0000ff;fill-opacity:1;stroke:#000000;stroke-width:1;stroke-miterlimit:4;stroke-opacity:1;stroke-dasharray:none;stroke-dashoffset:0"
         id="path3009"
         sodipodi:cx="59.022297"
         sodipodi:cy="92.563095"
         sodipodi:rx="3.535898"
         sodipodi:ry="3.535898"
         d="m 62.558195,92.563095 c 0,1.952823 -1.583076,3.535898 -3.535898,3.535898 -1.952823,0 -3.535898,-1.583075 -3.535898,-3.535898 0,-1.952822 1.583075,-3.535898 3.535898,-3.535898 1.952822,0 3.535898,1.583076 3.535898,3.535898 z"
         transform="matrix(1.1879357,0,0,1.1879357,-33.414733,842.33336)" />
      <path
         transform="matrix(1.1879357,0,0,1.1879357,42.839039,842.97958)"
         d="m 62.558195,92.563095 c 0,1.952823 -1.583076,3.535898 -3.535898,3.535898 -1.952823,0 -3.535898,-1.583075 -3.535898,-3.535898 0,-1.952822 1.583075,-3.535898 3.535898,-3.535898 1.952822,0 3.535898,1.583076 3.535898,3.535898 z"
         sodipodi:ry="3.535898"
         sodipodi:rx="3.535898"
         sodipodi:cy="92.563095"
         sodipodi:cx="59.022297"
         id="path3011"
         style="fill:#ffff00;fill-opacity:1;stroke:#000000;stroke-width:1;stroke-miterlimit:4;stroke-opacity:1;stroke-dasharray:none;stroke-dashoffset:0"
         sodipodi:type="arc" />
      <path
         sodipodi:type="arc"
         style="fill:#0000ff;fill-opacity:1;stroke:#000000;stroke-width:1;stroke-miterlimit:4;stroke-opacity:1;stroke-dasharray:none;stroke-dashoffset:0"
         id="path3013"
         sodipodi:cx="59.022297"
         sodipodi:cy="92.563095"
         sodipodi:rx="3.535898"
         sodipodi:ry="3.535898"
         d="m 62.558195,92.563095 c 0,1.952823 -1.583076,3.535898 -3.535898,3.535898 -1.952823,0 -3.535898,-1.583075 -3.535898,-3.535898 0,-1.952822 1.583075,-3.535898 3.535898,-3.535898 1.952822,0 3.535898,1.583076 3.535898,3.535898 z"
         transform="matrix(1.1879357,0,0,1.1879357,139.12558,841.04092)" />
      <path
         sodipodi:type="arc"
         style="fill:#ffff00;fill-opacity:1;stroke:#000000;stroke-width:1;stroke-miterlimit:4;stroke-opacity:1;stroke-dasharray:none;stroke-dashoffset:0"
         id="path3015"
         sodipodi:cx="59.022297"
         sodipodi:cy="92.563095"
         sodipodi:rx="3.535898"
         sodipodi:ry="3.535898"
         d="m 62.558195,92.563095 c 0,1.952823 -1.583076,3.535898 -3.535898,3.535898 -1.952823,0 -3.535898,-1.583075 -3.535898,-3.535898 0,-1.952822 1.583075,-3.535898 3.535898,-3.535898 1.952822,0 3.535898,1.583076 3.535898,3.535898 z"
         transform="matrix(1.1879357,0,0,1.1879357,-6.2735594,840.3947)" />
      <text
         sodipodi:linespacing="125%"
         id="text3017"
         y="982.73218"
         x="300.82333"
         style="font-size:22px;font-style:normal;font-weight:normal;line-height:125%;letter-spacing:0px;word-spacing:0px;fill:#000000;fill-opacity:1;stroke:none;font-family:Sans"
         xml:space="preserve"><tspan
           y="982.73218"
           x="300.82333"
           id="tspan3019"
           sodipodi:role="line">Job 2: Move Item from B to A</tspan></text>
      <path
         sodipodi:nodetypes="cc"
         inkscape:connector-curvature="0"
         id="path3021"
         d="M 125.55498,981.69532 C 95.086012,1017.1727 78.495177,1026.2913 53.178526,981.0491"
         style="fill:none;stroke:#000000;stroke-width:1.18793571px;stroke-linecap:butt;stroke-linejoin:miter;stroke-opacity:1;marker-end:url(#Arrow1Lend)" />
      <text
         sodipodi:linespacing="125%"
         id="text4235"
         y="896.78265"
         x="300.82333"
         style="font-size:22px;font-style:normal;font-weight:normal;line-height:125%;letter-spacing:0px;word-spacing:0px;fill:#000000;fill-opacity:1;stroke:none;font-family:Sans"
         xml:space="preserve"><tspan
           y="896.78265"
           x="300.82333"
           id="tspan4237"
           sodipodi:role="line">Job 1: Count all Items</tspan></text>
      <path
         inkscape:connector-curvature="0"
         id="path4243"
         d="m 49.947434,875.0233 0,27.7432"
         style="fill:none;stroke:#000000;stroke-width:1px;stroke-linecap:butt;stroke-linejoin:miter;stroke-opacity:1;marker-end:url(#Arrow1Lend)" />
      <path
         style="fill:none;stroke:#000000;stroke-width:1px;stroke-linecap:butt;stroke-linejoin:miter;stroke-opacity:1;marker-end:url(#Arrow1Lend)"
         d="m 127.49364,875.0233 0,27.7432"
         id="path4427"
         inkscape:connector-curvature="0" />
      <path
         inkscape:connector-curvature="0"
         id="path4429"
         d="m 207.62472,875.0233 0,27.7432"
         style="fill:none;stroke:#000000;stroke-width:1px;stroke-linecap:butt;stroke-linejoin:miter;stroke-opacity:1;marker-end:url(#Arrow1Lend)" />
    </g>
  </g>
</svg>
